Patient4_TMGait_0pt5_02_left_33_GRF.mot
version=1
nRows=71
nColumns=19
inDegrees=no
endheader
time	F1x	F1y	F1z	M1x	M1y	M1z	F2x	F2y	F2z	M2x	M2y	M2z	EC1x	EC1y	EC1z	EC2x	EC2y	EC2z
42.52	10.289	-5.9202	4.2213	-0.33992	2.669	-0.61091	-19.5552	736.2567	-41.7978	274.0002	50.1975	724.9308	-0.0592	0.0182	-0.0073	-0.0462	0.0165	0.9585
42.5324	6.7184	-3.537	2.8078	-0.36171	1.7226	0.292	-20.11	736.6458	-44.2951	274.51	51.3074	721.4641	-0.0592	0.0182	-0.0073	-0.0462	0.0165	0.9585
42.5447	3.7485	-1.5377	1.6383	-0.39777	0.92581	0.98067	-20.1825	738.7197	-46.7274	275.4356	52.2883	719.3449	-0.0592	0.0182	-0.0073	-0.0462	0.0165	0.9585
42.5571	1.5321	-0.026828	0.77226	-0.44033	0.31576	1.4451	-19.7237	742.6477	-48.9265	276.8078	53.0469	718.8729	-0.0592	0.0182	-0.0073	-0.0462	0.0165	0.9585
42.5694	0.0077252	1.035	0.18838	-0.48903	-0.1139	1.7539	-18.759	748.301	-50.8207	278.6038	53.5462	719.9893	-0.0592	0.0182	-0.0073	-0.0462	0.0165	0.9585
42.5818	-0.90587	1.6963	-0.15024	-0.5327	-0.39305	1.9049	-17.3547	755.2861	-52.3883	280.7321	53.776	722.3566	-0.0592	0.0182	-0.0073	-0.0462	0.0165	0.9585
42.5941	-1.4001	2.0491	-0.31505	-0.56468	-0.55664	1.9625	-15.6094	763.0023	-53.6321	283.0307	53.7394	725.4256	-0.0592	0.0182	-0.0073	-0.0462	0.0165	0.9585
42.6065	-1.5894	2.1441	-0.35001	-0.56902	-0.64723	1.8932	-13.6142	770.7152	-54.5831	285.2821	53.459	728.5122	-0.0592	0.0182	-0.0073	-0.0462	0.0165	0.9585
42.6189	-1.6323	2.0291	-0.31629	-0.53087	-0.69383	1.7168	-11.461	777.6647	-55.2626	287.2477	52.952	730.9262	-0.0592	0.0182	-0.0073	-0.0462	0.0165	0.9585
42.6312	-1.5852	1.6894	-0.23283	-0.42635	-0.72919	1.3478	-9.2277	783.1644	-55.7016	288.7039	52.2484	732.0474	-0.0592	0.0182	-0.0073	-0.0462	0.0165	0.9585
42.6436	-1.5346	1.1055	-0.1301	-0.23342	-0.76819	0.74899	-6.9953	786.6629	-55.9205	289.4636	51.3706	731.3906	-0.0592	0.0182	-0.0073	-0.0462	0.0165	0.9585
42.6559	-1.4783	0.21018	-0.013638	0.077018	-0.81686	-0.17405	-4.8158	787.7401	-55.9572	289.3798	50.3542	728.5781	-0.0592	0.0182	-0.0073	-0.0462	0.0165	0.9585
42.6683	-1.427	-1.0286	0.097148	0.52221	-0.86281	-1.45	-2.7179	786.1954	-55.8538	288.3751	49.2346	723.4348	-0.0592	0.0182	-0.0073	-0.0462	0.0165	0.9585
42.6806	-1.3465	-2.6223	0.19277	1.109	-0.88749	-3.1061	-0.66945	782.0852	-55.6837	286.4631	48.0597	715.999	-0.0592	0.0182	-0.0073	-0.0462	0.0165	0.9585
42.693	-1.1859	-4.4859	0.2526	1.8079	-0.85139	-5.0521	1.3721	775.746	-55.5216	283.7599	46.8745	706.5674	-0.0592	0.0182	-0.0073	-0.0462	0.0165	0.9585
42.7054	-0.86803	-6.386	0.26332	2.5304	-0.7119	-7.0336	3.4977	767.7046	-55.4308	280.4576	45.7082	695.5943	-0.0592	0.0182	-0.0073	-0.0462	0.0165	0.9585
42.7177	-0.29153	-7.8907	0.19961	3.1076	-0.40416	-8.5962	5.7655	758.6369	-55.4384	276.8036	44.5699	683.6878	-0.0592	0.0182	-0.0073	-0.0462	0.0165	0.9585
42.7301	0.6286	-8.2655	0.030463	3.2585	0.13952	-8.9512	8.2459	749.2589	-55.5367	273.0657	43.4368	671.4783	-0.0592	0.0182	-0.0073	-0.0462	0.0165	0.9585
42.7424	1.9893	-6.4589	-0.28591	2.5779	0.99817	-6.9925	10.9655	740.2619	-55.6955	269.5043	42.2801	659.5905	-0.0592	0.0182	-0.0073	-0.0462	0.0165	0.9585
42.7548	3.7906	-1.0627	-0.79807	0.52905	2.2274	-1.2036	13.9334	732.1886	-55.8611	266.3265	41.0557	648.5141	-0.0592	0.0182	-0.0073	-0.0462	0.0165	0.9585
42.7671	5.976	9.5869	-1.5434	-3.5272	3.8442	10.1826	17.1026	725.333	-55.9626	263.6461	39.7215	638.5294	-0.0592	0.0182	-0.0073	-0.0462	0.0165	0.9585
42.7795	8.2857	27.222	-2.5364	-10.254	5.7609	29.0495	20.3878	719.6036	-55.9014	261.4338	38.2275	629.5866	-0.0592	0.0182	-0.0073	-0.0462	0.0165	0.9585
42.7919	10.2469	53.2119	-3.7286	-20.1788	7.7349	56.8678	23.6893	714.4718	-55.5498	259.4966	36.5116	621.2805	-0.0592	0.0182	-0.0073	-0.0462	0.0165	0.9585
42.8042	11.0332	87.9396	-4.9819	-33.448	9.2953	94.0684	26.8774	708.9545	-54.7543	257.4731	34.5011	612.8375	-0.0592	0.0182	-0.0073	-0.0462	0.0165	0.9585
42.8166	9.5509	129.8934	-6.0167	-49.4874	9.7172	139.0326	29.8253	701.6622	-53.3539	254.8536	32.1159	603.1333	-0.0592	0.0182	-0.0073	-0.0462	0.0165	0.9585
42.8289	5.0827	175.1981	-6.3642	-66.7995	8.2264	187.6398	32.3901	690.9778	-51.2142	251.043	29.3042	590.8663	-0.0592	0.0182	-0.0073	-0.0462	0.0165	0.9585
42.8413	-1.3514	218.3699	-5.293	-83.2388	4.4493	233.9972	34.4742	675.3187	-48.2712	245.4587	26.0613	574.7378	-0.0592	0.0182	-0.0073	-0.0462	0.0165	0.9585
42.8536	-8.0361	254.5011	-2.5445	-96.9204	-1.1523	272.7025	35.9923	653.5541	-44.6	237.6753	22.4873	553.8315	-0.0592	0.0182	-0.0073	-0.0462	0.0165	0.9585
42.866	-13.7015	282.2187	1.3178	-107.3213	-7.4886	302.0809	36.9485	625.2339	-40.4343	227.5079	18.7743	527.7783	-0.0592	0.0182	-0.0073	-0.0462	0.0165	0.9585
42.8784	-17.8577	303.1137	5.9033	-115.0591	-13.9157	323.8036	37.3775	590.5777	-36.096	215.0157	15.1634	496.7818	-0.0592	0.0182	-0.0073	-0.0462	0.0165	0.9585
42.8907	-20.4537	320.2063	10.525	-121.3173	-19.6987	341.058	37.3464	550.3478	-31.8263	200.4633	11.8167	461.4813	-0.0592	0.0182	-0.0073	-0.0462	0.0165	0.9585
42.9031	-21.8491	336.7646	15.0179	-127.3469	-24.7778	357.3727	36.8713	505.6298	-27.7056	184.2478	8.7809	422.7851	-0.0592	0.0182	-0.0073	-0.0462	0.0165	0.9585
42.9154	-22.4207	355.4786	18.9704	-134.194	-28.8974	375.5364	35.9429	457.6632	-23.6758	166.8331	6.0053	381.7214	-0.0592	0.0182	-0.0073	-0.0462	0.0165	0.9585
42.9278	-22.5502	378.2783	22.4458	-142.584	-32.2669	397.5947	34.4971	407.7136	-19.6584	148.6923	3.4436	339.3529	-0.0592	0.0182	-0.0073	-0.0462	0.0165	0.9585
42.9401	-22.4637	406.3926	25.3665	-152.9782	-34.9245	424.809	32.4615	357.0247	-15.6259	130.2842	1.089	296.6983	-0.0592	0.0182	-0.0073	-0.0462	0.0165	0.9585
42.9525	-22.3184	440.3269	28.0915	-165.5335	-37.3029	457.7507	29.8021	306.8181	-11.6676	112.0499	-0.99136	254.7315	-0.0592	0.0182	-0.0073	-0.0462	0.0165	0.9585
42.9649	-22.1572	479.6707	30.8763	-180.0646	-39.6964	495.9603	26.5516	258.3026	-7.9579	94.4187	-2.6868	214.3996	-0.0592	0.0182	-0.0073	-0.0462	0.0165	0.9585
42.9772	-22.0767	523.1271	34.1768	-196.0471	-42.5983	538.1074	22.8264	212.6299	-4.6995	77.8001	-3.8929	176.5879	-0.0592	0.0182	-0.0073	-0.0462	0.0165	0.9585
42.9896	-22.136	568.9754	38.1644	-212.822	-46.2089	582.3775	18.8182	170.8607	-2.0601	62.5752	-4.5547	142.1018	-0.0592	0.0182	-0.0073	-0.0462	0.0165	0.9585
43.0019	-22.3641	615.5508	42.8342	-229.7718	-50.5363	627.0365	14.7756	133.8323	-0.12351	49.0508	-4.6928	111.5676	-0.0592	0.0182	-0.0073	-0.0462	0.0165	0.9585
43.0143	-22.6786	661.3456	47.821	-246.3729	-55.1986	670.5012	10.934	102.0205	1.1404	37.4094	-4.403	85.328	-0.0592	0.0182	-0.0073	-0.0462	0.0165	0.9585
43.0266	-22.9164	704.9392	52.7165	-262.1411	-59.7372	711.301	7.4672	75.4813	1.8346	27.6828	-3.8089	63.4007	-0.0592	0.0182	-0.0073	-0.0462	0.0165	0.9585
43.039	-22.8848	744.8222	57.1586	-276.5594	-63.7266	747.9103	4.4807	53.9231	2.0992	19.7741	-3.0417	45.5435	-0.0592	0.0182	-0.0073	-0.0462	0.0165	0.9585
43.0514	-22.41	779.4505	60.9169	-289.0853	-66.881	778.8084	2.041	36.8432	2.0724	13.5063	-2.2245	31.3605	-0.0592	0.0182	-0.0073	-0.0462	0.0165	0.9585
43.0637	-21.3819	807.408	63.9237	-299.2116	-69.0959	802.657	0.19427	23.6858	1.861	8.6778	-1.4512	20.4167	-0.0592	0.0182	-0.0073	-0.0462	0.0165	0.9585
43.0761	-19.7478	827.5874	66.1323	-306.5445	-70.3114	818.4461	-1.0267	13.9203	1.54	5.0955	-0.79089	12.2841	-0.0592	0.0182	-0.0073	-0.0462	0.0165	0.9585
43.0884	-17.4926	839.4082	67.5909	-310.875	-70.5724	825.714	-1.634	7.0675	1.1631	2.5836	-0.28454	6.5642	-0.0592	0.0182	-0.0073	-0.0462	0.0165	0.9585
43.1008	-14.6159	842.8932	68.2761	-312.2163	-69.8632	824.5658	-1.7754	2.6815	0.79945	0.97745	0.061731	2.8809	-0.0592	0.0182	-0.0073	-0.0462	0.0165	0.9585
43.1131	-11.1816	838.6847	68.2669	-310.8024	-68.2844	815.7221	-1.6509	0.24067	0.49562	0.086051	0.27653	0.8002	-0.0592	0.0182	-0.0073	-0.0462	0.0165	0.9585
43.1255	-7.2494	828.0026	67.5625	-307.0809	-65.8599	800.4238	-1.397	-0.80873	0.259	-0.29267	0.39924	-0.13172	-0.0592	0.0182	-0.0073	-0.0462	0.0165	0.9585
43.1379	-2.9221	812.4965	66.3004	-301.652	-62.7588	780.3528	-1.1086	-0.96503	0.087343	-0.3401	0.45974	-0.30859	-0.0592	0.0182	-0.0073	-0.0462	0.0165	0.9585
43.1502	1.6727	794.034	64.5929	-295.1914	-59.1348	757.3723	-0.84097	-0.61952	-0.027205	-0.20025	0.47649	-0.052363	-0.0592	0.0182	-0.0073	-0.0462	0.0165	0.9585
43.1626	6.3676	774.5306	62.6937	-288.3797	-55.2863	733.4005	-0.62032	-0.044389	-0.10203	0.025823	0.46542	0.40774	-0.0592	0.0182	-0.0073	-0.0462	0.0165	0.9585
43.1749	11.0087	755.7654	60.7631	-281.8511	-51.416	710.1967	-0.45539	0.58536	-0.14641	0.27308	0.43112	0.92523	-0.0592	0.0182	-0.0073	-0.0462	0.0165	0.9585
43.1873	15.4492	739.2686	59.0132	-276.1483	-47.7675	689.2628	-0.33912	1.1736	-0.17845	0.50537	0.39011	1.4272	-0.0592	0.0182	-0.0073	-0.0462	0.0165	0.9585
43.1996	19.5864	726.1892	57.5217	-271.6825	-44.4415	671.6881	-0.26708	1.6732	-0.20399	0.70514	0.34893	1.8714	-0.0592	0.0182	-0.0073	-0.0462	0.0165	0.9585
43.212	23.3474	717.203	56.3869	-268.6919	-41.5489	658.1175	-0.23604	2.0777	-0.22723	0.86831	0.31449	2.2502	-0.0592	0.0182	-0.0073	-0.0462	0.0165	0.9585
43.2244	26.7074	712.4819	55.6061	-267.2341	-39.0922	648.6978	-0.24138	2.3891	-0.24517	0.99387	0.29168	2.5637	-0.0592	0.0182	-0.0073	-0.0462	0.0165	0.9585
43.2367	29.6671	711.7431	55.2004	-267.1994	-37.0923	643.1429	-0.2852	2.5975	-0.25304	1.0784	0.28215	2.7941	-0.0592	0.0182	-0.0073	-0.0462	0.0165	0.9585
43.2491	32.2581	714.3534	55.1123	-268.3583	-35.4895	640.8427	-0.36254	2.6859	-0.24633	1.1134	0.28064	2.9056	-0.0592	0.0182	-0.0073	-0.0462	0.0165	0.9585
43.2614	34.5355	719.4634	55.308	-270.4007	-34.2397	641.0015	-0.46929	2.615	-0.22004	1.0823	0.27891	2.844	-0.0592	0.0182	-0.0073	-0.0462	0.0165	0.9585
43.2738	36.5487	726.1605	55.6954	-272.9934	-33.2475	642.7639	-0.60362	2.325	-0.1816	0.96139	0.28282	2.5522	-0.0592	0.0182	-0.0073	-0.0462	0.0165	0.9585
43.2861	38.3355	733.5618	56.216	-275.8122	-32.46	645.3195	-0.75441	1.7331	-0.13418	0.71954	0.29245	1.946	-0.0592	0.0182	-0.0073	-0.0462	0.0165	0.9585
43.2985	39.9216	740.9097	56.7784	-278.5785	-31.8001	647.9897	-0.9104	0.74248	-0.088162	0.32063	0.30811	0.91598	-0.0592	0.0182	-0.0073	-0.0462	0.0165	0.9585
43.3109	41.3216	747.6127	57.3147	-281.0729	-31.213	650.2642	-1.0359	-0.73497	-0.04222	-0.26692	0.31224	-0.64297	-0.0592	0.0182	-0.0073	-0.0462	0.0165	0.9585
43.3232	42.5318	753.2491	57.7521	-283.133	-30.6392	651.804	-1.0799	-2.7312	-0.0059396	-1.0538	0.29382	-2.7709	-0.0592	0.0182	-0.0073	-0.0462	0.0165	0.9585
43.3356	43.5358	757.4934	58.057	-284.6301	-30.0603	652.3691	-0.96367	-5.1815	0.019808	-2.0132	0.22234	-5.4024	-0.0592	0.0182	-0.0073	-0.0462	0.0165	0.9585
43.3479	44.3006	760.099	58.1963	-285.4629	-29.4673	651.8079	-0.59109	-7.8205	0.020658	-3.0448	0.074169	-8.255	-0.0592	0.0182	-0.0073	-0.0462	0.0165	0.9585
43.3603	44.7806	760.8282	58.1639	-285.5297	-28.8814	649.9815	0.15003	-10.1157	-0.014483	-3.9444	-0.17916	-10.7718	-0.0592	0.0182	-0.0073	-0.0462	0.0165	0.9585
43.3726	44.9492	759.4177	57.9781	-284.7175	-28.34	646.7255	1.3686	-11.1628	-0.10834	-4.3638	-0.55	-11.9931	-0.0592	0.0182	-0.0073	-0.0462	0.0165	0.9585
43.385	44.7995	755.6051	57.6655	-282.9136	-27.8758	641.8613	3.1605	-9.6168	-0.29405	-3.7806	-1.0304	-10.4787	-0.0592	0.0182	-0.0073	-0.0462	0.0165	0.9585
